HIERARCHY
ROOT Hips
{
	OFFSET	0.00	0.00	0.00
	CHANNELS 6 Xposition Yposition Zposition Zrotation Xrotation Yrotation
	JOINT LeftUpLeg
	{
		OFFSET	 0.126116	-0.065224	 0.014019
		CHANNELS 3 Zrotation Xrotation Yrotation
		JOINT LeftLeg
		{
			OFFSET	 0.000000	 0.569914	 0.000000
			CHANNELS 3 Zrotation Xrotation Yrotation
			JOINT LeftFoot
			{
				OFFSET	 0.000000	 0.544423	 0.000000
				CHANNELS 3 Zrotation Xrotation Yrotation
				JOINT LeftToeBase
				{
					OFFSET	 0.000000	 0.207117	 0.000000
					CHANNELS 3 Zrotation Xrotation Yrotation
					End Site
					{
						OFFSET	 0.000000	 0.207117	 0.000000
					}
				}
			}
		}
	}
	JOINT RightUpLeg
	{
		OFFSET	-0.124023	-0.065224	 0.008373
		CHANNELS 3 Zrotation Xrotation Yrotation
		JOINT RightLeg
		{
			OFFSET	 0.000000	 0.570047	 0.000000
			CHANNELS 3 Zrotation Xrotation Yrotation
			JOINT RightFoot
			{
				OFFSET	 0.000000	 0.544354	 0.000000
				CHANNELS 3 Zrotation Xrotation Yrotation
				JOINT RightToeBase
				{
					OFFSET	 0.000000	 0.207540	 0.000000
					CHANNELS 3 Zrotation Xrotation Yrotation
					End Site
					{
						OFFSET	 0.000000	 0.207540	 0.000000
					}
				}
			}
		}
	}
	JOINT Spine
	{
		OFFSET	 0.000184	 0.117403	 0.007763
		CHANNELS 3 Zrotation Xrotation Yrotation
		JOINT Spine1
		{
			OFFSET	 0.000000	 0.137269	 0.000000
			CHANNELS 3 Zrotation Xrotation Yrotation
			JOINT Spine2
			{
				OFFSET	 0.000000	 0.156879	 0.000000
				CHANNELS 3 Zrotation Xrotation Yrotation
				JOINT LeftShoulder
				{
					OFFSET	 0.080501	 0.160143	 0.002496
					CHANNELS 3 Zrotation Xrotation Yrotation
					JOINT LeftArm
					{
						OFFSET	 0.000000	 0.164363	 0.000000
						CHANNELS 3 Zrotation Xrotation Yrotation
						JOINT LeftForeArm
						{
							OFFSET	 0.000000	 0.364576	 0.000000
							CHANNELS 3 Zrotation Xrotation Yrotation
							JOINT LeftHand
							{
								OFFSET	 0.000000	 0.360812	 0.000000
								CHANNELS 3 Zrotation Xrotation Yrotation
								JOINT LeftHandIndex1
								{
									OFFSET	 0.000000	 0.086006	 0.000000
									CHANNELS 3 Zrotation Xrotation Yrotation
									JOINT LeftHandIndex2
									{
										OFFSET	 0.000000	 0.047237	 0.000000
										CHANNELS 3 Zrotation Xrotation Yrotation
										JOINT LeftHandIndex3
										{
											OFFSET	-0.004284	 0.038165	 0.000551
											CHANNELS 3 Zrotation Xrotation Yrotation
											End Site
											{
												OFFSET	-0.004284	 0.038165	 0.000551
											}
										}
									}
								}
							}
						}
					}
				}
				JOINT Neck
				{
					OFFSET	 0.000000	 0.176489	 0.000000
					CHANNELS 3 Zrotation Xrotation Yrotation
					JOINT Head
					{
						OFFSET	 0.000000	 0.077941	 0.001747
						CHANNELS 3 Zrotation Xrotation Yrotation
						End Site
						{
							OFFSET	 0.000000	 0.077941	 0.001747
						}
					}
				}
				JOINT RightShoulder
				{
					OFFSET	-0.080363	 0.159706	-0.000306
					CHANNELS 3 Zrotation Xrotation Yrotation
					JOINT RightArm
					{
						OFFSET	 0.000000	 0.164196	 0.000000
						CHANNELS 3 Zrotation Xrotation Yrotation
						JOINT RightForeArm
						{
							OFFSET	 0.000000	 0.365611	 0.000000
							CHANNELS 3 Zrotation Xrotation Yrotation
							JOINT RightHand
							{
								OFFSET	 0.000000	 0.360648	 0.000000
								CHANNELS 3 Zrotation Xrotation Yrotation
								JOINT RightHandIndex1
								{
									OFFSET	 0.000000	 0.069977	 0.000000
									CHANNELS 3 Zrotation Xrotation Yrotation
									JOINT RightHandIndex2
									{
										OFFSET	 0.000000	 0.052305	 0.000000
										CHANNELS 3 Zrotation Xrotation Yrotation
										JOINT RightHandIndex3
										{
											OFFSET	 0.009002	 0.042196	 0.000782
											CHANNELS 3 Zrotation Xrotation Yrotation
											End Site
											{
												OFFSET	 0.009002	 0.042196	 0.000782
											}
										}
									}
								}
							}
						}
					}
				}
			}
		}
	}
}
MOTION
Frames:    4
Frame Time: 0.03333334
 0.459838	 1.039046	 0.631488	-8.160818	-34.613520	-178.980900	 159.715200	 81.833260	-2.993763	 31.286960	-62.908160	 35.948100	 79.094800	 67.155410	-64.704530	 1.292262	 28.425850	-2.713146	 102.552800	 81.201390	 78.544030	-28.384100	-67.985400	-36.012960	-68.336560	 57.170380	 55.413460	-1.288183	 28.361890	 2.710176	-6.208766	 8.854371	 44.212150	 1.797425	 12.957680	 0.435104	-4.041532	 3.672141	-11.482020	-122.658000	 30.097870	 106.087400	 49.763440	-8.081754	 9.569564	 11.452970	-6.432186	 1.956010	 41.763390	 25.563430	 5.775686	-6.580301	 5.266122	 0.000000	 0.000000	 0.000000	 0.000000	 0.000000	 0.000000	 0.000000	 5.544584	 25.604810	-2.351333	-3.292666	-36.901980	-2.884733	 124.601200	 28.749210	-106.388000	-80.572190	 10.274730	 4.708407	-14.275840	 0.957575	-47.990280	 10.127010	-44.703210	-10.006920	 15.208500	 5.323790	 0.000000	 0.000000	 0.000000	 0.000000	 0.000000	 0.000000	 0.000000
 0.447377	 1.116689	 0.622531	-5.973382	-29.899320	-177.771300	 172.757200	 68.647220	-16.475480	 19.459800	-51.430260	 25.046450	 66.958310	 67.721050	-52.295960	 1.292262	 28.425850	-2.713146	 144.803300	 70.553990	 41.269340	-16.589300	-56.051260	-26.190890	-62.082610	 57.009540	 49.286120	-1.288183	 28.361890	 2.710176	-4.118268	 8.039070	 39.305830	 1.790529	 11.428010	 1.007474	-2.898334	 0.608175	-11.605770	-118.083000	 25.427930	 102.228600	 51.673310	 2.674576	 3.158248	 12.103020	-6.449005	 6.365661	 45.524960	 26.487680	 2.155043	-6.580301	 5.266122	 0.000000	 0.000000	 0.000000	 0.000000	 0.000000	 0.000000	 0.000000	 0.952221	 9.390838	-1.103565	-0.466404	-22.142740	-3.048256	 122.547300	 24.997580	-103.761500	-64.886100	 17.239720	 1.021497	-46.281870	 1.463647	-48.713680	 15.605230	-45.378840	-14.799710	 15.208500	 5.323790	 0.000000	 0.000000	 0.000000	 0.000000	 0.000000	 0.000000	 0.000000
 0.449520	 1.272084	 0.472091	 0.167218	-5.315011	-174.078500	-178.287500	 13.362610	-23.681250	 3.680225	-13.583350	 6.598662	 9.099946	 66.910480	-3.043620	 1.292262	 28.425850	-2.713146	 173.967100	 14.242890	 31.822310	-2.578776	-13.174890	 0.113463	-5.506735	 64.670710	-3.244720	-1.288183	 28.361890	 2.710176	 1.456855	 1.223406	-30.527530	-2.324009	 0.995563	 2.885998	 1.891523	-5.895115	-11.554330	-120.975100	 4.841578	 92.741460	 28.649780	 25.337040	 26.326850	 52.770090	-5.078015	-43.992470	 40.966690	 16.065570	 3.794744	-6.580301	 5.266122	 0.000000	 0.000000	 0.000000	 0.000000	 0.000000	 0.000000	 0.000000	 0.330888	 7.748744	-1.670520	 0.330866	-7.428438	-3.346694	 123.787600	 6.088902	-94.192310	-32.984040	 7.363267	 20.178940	-95.064080	 2.913610	 13.512670	 24.771150	 11.253900	 1.415703	 15.208500	 5.323790	 0.000000	 0.000000	 0.000000	 0.000000	 0.000000	 0.000000	 0.000000
 0.449493	 1.274787	 0.465207	 0.108758	-4.183197	-174.300100	-178.171200	 11.371850	-24.004900	 3.475420	-12.854170	 6.064146	 7.021443	 66.901280	-1.523607	 1.292262	 28.425850	-2.713146	 174.231700	 12.224170	 31.557280	-2.402539	-12.303530	 0.056574	-4.809521	 64.420470	-3.311061	-1.288183	 28.361890	 2.710176	 1.373520	 1.140747	-32.014850	-2.700207	-0.182182	 2.917568	 2.089459	-5.539929	-11.423120	-121.345400	 4.106187	 92.399280	 37.195650	 26.465780	 21.826670	 41.992220	-4.676091	-49.711040	 44.500020	 18.077040	 0.399803	-6.580301	 5.266122	 0.000000	 0.000000	 0.000000	 0.000000	 0.000000	 0.000000	 0.000000	 0.364619	 7.452818	-1.591925	 0.311803	-6.716569	-3.333539	 123.667300	 5.637072	-93.944880	-25.265700	 3.616702	 19.903760	-91.059900	 3.229905	 18.752200	 12.786290	 12.461120	 8.993260	 15.208500	 5.323790	 0.000000	 0.000000	 0.000000	 0.000000	 0.000000	 0.000000	 0.000000
